<svg xmlns="http://www.w3.org/2000/svg" width="106" height="14" viewBox="0 0 106 14"><defs><linearGradient id="zrbfa" x1="16.3" x2="37.31" y1="18.52" y2="-2.96" gradientUnits="userSpaceOnUse"><stop offset="0" stop-color="#4a54df"/><stop offset="1" stop-color="#15d4d8"/></linearGradient><linearGradient id="zrbfb" x1="68.45" x2="38.74" y1="-29.55" y2=".24" gradientUnits="userSpaceOnUse"><stop offset="0" stop-color="#4a54df"/><stop offset="1" stop-color="#15d4d8"/></linearGradient><linearGradient id="zrbfc" x1="16.3" x2="37.31" y1="18.52" y2="-2.96" gradientUnits="userSpaceOnUse"><stop offset="0" stop-color="#4a54df"/><stop offset="1" stop-color="#15d4d8"/></linearGradient><linearGradient id="zrbfd" x1="68.45" x2="38.74" y1="-29.55" y2=".24" gradientUnits="userSpaceOnUse"><stop offset="0" stop-color="#4a54df"/><stop offset="1" stop-color="#15d4d8"/></linearGradient></defs><g><g><g><path fill="#4a54df" d="M18.34 2.958V1.249c0-.394.295-.69.69-.69h8.84c.394 0 .69.296.69.69v1.709c0 .394-.296.69-.69.69h-8.84a.694.694 0 0 1-.69-.69z"/></g><g><path fill="url(#zrbfa)" d="M18.34 7.986V6.277c0-.394.295-.69.69-.69h8.84c.394 0 .69.296.69.69v1.71c0 .393-.296.69-.69.69h-8.84c-.362.032-.69-.297-.69-.69z"/></g><g><path fill="url(#zrbfb)" d="M18.34 13.047v-1.709c0-.394.295-.69.69-.69h8.84c.394 0 .69.296.69.69v1.71c0 .393-.296.69-.69.69h-8.84a.694.694 0 0 1-.69-.69z"/></g><g><g><path fill="#fff" d="M5.62 6.639H2.368V2.333h3.254c1.314 0 2.3.822 2.3 2.137 0 1.281-.986 2.136-2.3 2.169zm2.104 7.131h2.76L7.167 8.446c1.643-.263 3.22-1.577 3.22-3.976 0-2.498-1.774-4.24-4.436-4.24H0v13.507h2.366v-5.06h2.367l2.99 5.06z"/></g><g><path fill="#fff" d="M36.546 13.737V.23h2.366v11.437h5.948v2.103h-8.314z"/></g><g><path fill="#fff" d="M58.827 11.897c-2.727 0-4.469-2.103-4.469-4.897 0-2.793 1.742-4.897 4.47-4.897 2.694 0 4.469 2.104 4.469 4.897 0 2.76-1.775 4.864-4.47 4.897zM58.795 14c4.042 0 6.901-2.958 6.901-7s-2.86-7-6.901-7c-4.043 0-6.902 2.958-6.902 7s2.86 7 6.902 7z"/></g><g><path fill="#fff" d="M81.208 9.038h-4.864l2.432-6.442zm4.37 4.7L80.256.197h-2.958l-5.324 13.54h2.695l.986-2.597h6.211l.986 2.596z"/></g><g><path fill="#fff" d="M98.166 11.667h-2.662V2.3h2.662c3.023 0 4.633 2.07 4.633 4.7 0 2.53-1.709 4.666-4.633 4.666zm-5.029 2.103h5.029c4.206 0 7.065-2.793 7.065-6.77 0-3.976-2.859-6.77-7.065-6.77h-5.029z"/></g></g><g><path fill="#4a54df" d="M18.34 2.958V1.249c0-.394.295-.69.69-.69h8.84c.394 0 .69.296.69.69v1.709c0 .394-.296.69-.69.69h-8.84a.694.694 0 0 1-.69-.69z"/></g><g><path fill="url(#zrbfc)" d="M18.34 7.986V6.277c0-.394.295-.69.69-.69h8.84c.394 0 .69.296.69.69v1.71c0 .393-.296.69-.69.69h-8.84c-.362.032-.69-.297-.69-.69z"/></g><g><path fill="url(#zrbfd)" d="M18.34 13.047v-1.709c0-.394.295-.69.69-.69h8.84c.394 0 .69.296.69.69v1.71c0 .393-.296.69-.69.69h-8.84a.694.694 0 0 1-.69-.69z"/></g></g></g></svg>